<svg width="63" height="86" viewBox="0 0 63 86" fill="none" xmlns="http://www.w3.org/2000/svg">
<path d="M1.99193 20.4277C-0.266963 26.4757 -0.613933 33.0708 0.998552 39.3223C2.6103 45.5732 6.10323 51.1784 11.005 55.3801C15.9068 59.5813 21.9808 62.1754 28.4052 62.8116V71.2886C26.6393 72.0729 25.2278 73.4845 24.4434 75.2504H19.1913V81.393H24.4434C25.2462 83.2254 26.7325 84.6728 28.5857 85.426C30.4393 86.1788 32.5139 86.1788 34.3676 85.426C36.2207 84.6726 37.7069 83.2254 38.5098 81.393H47.4784C48.4265 83.5655 50.3241 85.1779 52.6215 85.7627C54.9181 86.3474 57.3565 85.8381 59.2276 84.384C61.0991 82.9292 62.1939 80.6916 62.1939 78.3216C62.1939 75.9516 61.0991 73.714 59.2276 72.2592C57.3567 70.8051 54.9181 70.2957 52.6215 70.8805C50.3241 71.4653 48.4266 73.0779 47.4784 75.2502H38.5098C37.7255 73.4843 36.3139 72.0727 34.548 71.2884V62.8115C41.7347 62.1094 48.4614 58.9579 53.6006 53.8849C58.7402 48.8125 61.9795 42.1276 62.7754 34.9516C63.5713 27.7744 61.8759 20.542 57.9738 14.4669C54.0709 8.39155 48.1985 3.84216 41.3409 1.58186C34.4826 -0.678439 27.0558 -0.511887 20.3051 2.05216C13.5551 4.61678 7.89178 9.42398 4.26448 15.668L9.54747 18.7393C10.1514 17.7192 10.8295 16.7437 11.5747 15.8216C12.8766 16.6189 14.2306 17.3271 15.6285 17.9406C14.3568 21.2924 13.571 24.8093 13.2941 28.383H6.3535C6.58042 26.3902 7.04454 24.4307 7.73558 22.5476L1.99193 20.4277ZM6.35353 34.5557H13.2948C13.5718 38.1301 14.3568 41.6463 15.6285 44.9981C14.2403 45.6309 12.887 46.3384 11.5748 47.1171C8.70493 43.4939 6.89794 39.1454 6.35353 34.5557ZM31.4768 56.5462C28.6166 54.2996 26.1643 51.5779 24.2283 48.499C28.9971 47.3939 33.9564 47.3939 38.7252 48.499C36.7892 51.5779 34.3369 54.2996 31.4768 56.5462ZM44.6525 50.4036C45.3894 50.7416 46.0962 51.0796 46.8024 51.4785C45.3078 52.6262 43.6907 53.6044 41.9808 54.3963C42.9508 53.163 43.8434 51.8706 44.6525 50.5263V50.4036ZM20.9719 54.3963C19.2573 53.6456 17.6298 52.7077 16.1196 51.6012C16.8257 51.2022 17.5325 50.8642 18.2695 50.5263C19.0839 51.9131 19.9868 53.2473 20.9719 54.519V54.3963ZM31.4761 41.5277C28.0716 41.5366 24.6836 42.0014 21.4025 42.9098C20.3626 40.2299 19.701 37.4178 19.4364 34.5555H43.5154C43.2597 37.4492 42.5974 40.2923 41.5492 43.0016C38.2722 42.0624 34.8845 41.5668 31.4761 41.5277ZM31.4761 79.8575C30.628 79.8575 29.9404 79.1699 29.9404 78.3219C29.9404 77.4738 30.628 76.7862 31.4761 76.7862C32.3241 76.7862 33.0117 77.4738 33.0117 78.3219C33.0117 78.7291 32.8499 79.1199 32.562 79.4078C32.274 79.6957 31.8833 79.8575 31.4761 79.8575ZM54.5108 76.7862C54.918 76.7862 55.3088 76.948 55.5967 77.2359C55.8846 77.5239 56.0464 77.9146 56.0464 78.3219C56.0464 79.1699 55.3588 79.8575 54.5108 79.8575C53.6628 79.8575 52.9751 79.1699 52.9751 78.3219C52.9751 77.4738 53.6628 76.7862 54.5108 76.7862ZM51.4395 47.1175C50.1273 46.3387 48.774 45.6312 47.385 44.9984C48.6567 41.6467 49.4431 38.1305 49.7194 34.556H56.6607C56.0985 39.1521 54.2695 43.5012 51.3777 47.1175H51.4395ZM56.6607 28.4141H49.6585C49.3815 24.8397 48.5959 21.3235 47.3241 17.9717C48.7186 17.3513 50.0725 16.6431 51.3779 15.8527C54.2421 19.4793 56.0485 23.8265 56.5991 28.4141H56.6607ZM31.4761 6.42363C34.3362 8.67024 36.7885 11.3919 38.7245 14.4708C36.3505 15.0453 33.918 15.3442 31.4761 15.3613C29.0362 15.3641 26.6037 15.0857 24.2276 14.5318C26.1581 11.4317 28.6104 8.68797 31.4761 6.42363ZM41.9803 8.45087C43.701 9.24063 45.3285 10.2189 46.8325 11.3686C46.1264 11.7676 45.4196 12.1056 44.6826 12.4436C43.8682 11.0567 42.9653 9.72256 41.9803 8.45087ZM16.1199 11.3686C17.6096 10.247 19.216 9.28994 20.9113 8.51264C19.9673 9.77202 19.0952 11.0848 18.3007 12.4436L16.1199 11.3686ZM21.4029 20.06C24.6813 20.989 28.0692 21.475 31.4764 21.5038C34.8808 21.4949 38.2689 21.0301 41.5499 20.1217C42.5899 22.8017 43.2515 25.613 43.5161 28.476H19.4371C19.6962 25.5925 20.3574 22.7598 21.4029 20.06Z" fill="#1E1E1E"/>
<path d="M0.763411 78.3208C0.763411 80.357 1.57237 82.31 3.01195 83.7505C4.4523 85.1902 6.40548 85.9991 8.44166 85.9991C10.4778 85.9991 12.4308 85.1901 13.8714 83.7505C15.311 82.3102 16.1199 80.357 16.1199 78.3208C16.1199 76.2846 15.3109 74.3316 13.8714 72.8911C12.431 71.4514 10.4778 70.6426 8.44166 70.6426C6.40548 70.6426 4.45248 71.4515 3.01195 72.8911C1.57229 74.3315 0.763411 76.2846 0.763411 78.3208ZM9.97731 78.3208C9.97731 79.1688 9.28969 79.8565 8.44166 79.8565C7.59363 79.8565 6.90601 79.1688 6.90601 78.3208C6.90601 77.4728 7.59363 76.7852 8.44166 76.7852C9.28969 76.7852 9.97731 77.4728 9.97731 78.3208Z" fill="#1E1E1E"/>
</svg>
