<svg width="111" height="86" viewBox="0 0 111 86" fill="none" xmlns="http://www.w3.org/2000/svg">
<path d="M37.0862 28.7032C41.1335 26.2839 45.2961 25.8442 49.1109 26.3935C50.036 26.5031 50.845 25.8434 50.845 24.9636L50.8458 1.42986C50.8458 0.659688 50.1522 0 49.3424 0H41.2488C39.3986 0 37.896 1.31941 37.7798 2.96941L36.6232 13.6366C36.6232 13.9664 36.2764 14.2963 35.9295 14.4067C34.6576 14.8463 33.3858 15.2866 32.2291 15.9463C31.8823 16.1664 31.4193 16.056 31.0725 15.8366L22.2859 9.12759C20.8986 8.02757 18.8169 8.13803 17.545 9.34775L10.7233 15.8358C9.45134 17.0455 9.33601 19.0246 10.4918 20.3448L17.6604 28.7024C17.8919 29.0323 18.0072 29.4726 17.7758 29.8024C17.1975 30.9025 16.6192 32.1122 16.157 33.3219C16.0417 33.6517 15.6949 33.9816 15.2319 33.9816L4.01616 35.0816C2.16595 35.3018 0.894043 36.7309 0.894043 38.3809V47.6183C0.894043 49.378 2.28131 50.807 4.01616 50.9176L15.2319 52.0176C15.6941 52.0176 15.9256 52.3475 16.157 52.6773C16.6192 53.887 17.0821 55.0967 17.7758 56.1968C18.0072 56.5266 17.8911 56.9669 17.6604 57.2968L10.4918 65.6544C9.3352 66.9738 9.45134 68.9537 10.7233 70.1634L17.545 76.6515C18.817 77.8612 20.8978 77.9709 22.2859 76.8716L31.0733 70.0536C31.4201 69.8335 31.7669 69.7238 32.2299 69.9439C33.3865 70.4939 34.6585 71.0439 35.9304 71.3738C36.2772 71.4835 36.624 71.8133 36.624 72.2537L37.7806 82.9208C38.0121 84.6805 39.5147 86 41.2496 86H49.3432C50.153 86 50.8466 85.3403 50.8466 84.5701L50.8458 60.9245C50.8458 60.0446 50.036 59.3849 49.1117 59.4946C48.1866 59.6043 47.1462 59.7148 46.1057 59.7148C36.5087 59.7148 28.7617 52.4565 28.4148 43.4393C28.2979 37.3907 31.6518 32.0025 37.0862 28.7032Z" fill="#1E1E1E"/>
<path d="M50.8457 32.5522V53.5566C50.8457 54.2163 50.4989 54.7663 49.8053 54.876C47.8397 55.426 45.7579 55.5357 43.5619 55.2059C38.3589 54.326 34.0801 50.1468 33.2711 45.1984C31.8839 37.39 38.1274 30.6818 46.1056 30.6818C47.3776 30.6818 48.6494 30.902 49.9213 31.2318C50.498 31.3423 50.8457 31.8925 50.8457 32.5522Z" fill="#1E1E1E"/>
<path d="M67.6116 49.7076H64.9524C64.2588 49.7076 63.7958 50.2577 63.7958 50.8077V62.3548H56.6272C55.9335 62.3548 55.4706 62.9048 55.4706 63.4548V66.0937C55.4706 66.7534 56.0489 67.1937 56.6272 67.1937H72.4678L78.7112 76.8714C79.1733 77.5311 79.9831 77.9714 80.9083 77.9714H87.73C89.002 81.3803 92.7016 83.6901 96.9804 82.8103C99.7556 82.1506 101.952 80.061 102.646 77.4215C103.918 72.473 99.9871 68.0736 95.0147 68.0736C91.5457 68.0736 88.7713 70.1633 87.73 73.1327H82.2956L76.0522 63.4551C75.59 62.7953 74.7803 62.355 73.8551 62.355H68.8836V50.8079C68.7674 50.1474 68.3052 49.7076 67.6116 49.7076ZM97.7901 75.6607C97.7901 77.0906 96.5181 78.3002 95.0148 78.3002C93.5115 78.3002 92.2396 77.0905 92.2396 75.6607C92.2396 74.231 93.5115 73.0212 95.0148 73.0212C96.5181 73.0212 97.7901 74.231 97.7901 75.6607Z" fill="#1E1E1E"/>
<path d="M87.7305 7.91876H80.9088C79.9837 7.91876 79.1747 8.35831 78.7117 9.01878L72.4683 18.6964L56.5116 18.6956C55.818 18.6956 55.355 19.2456 55.355 19.7957V22.3248C55.355 22.9845 55.9333 23.4248 56.5116 23.4248H63.6802V35.0815C63.6802 35.7412 64.2586 36.1815 64.8368 36.1815H67.496C68.1897 36.1815 68.6526 35.6315 68.6526 35.0815V23.5344H73.6242C74.5493 23.5344 75.3582 23.0948 75.8213 22.4344L82.0647 12.7567H87.4991C88.7711 16.1656 92.4706 18.4754 96.7494 17.5957C99.5247 16.9359 101.721 14.8464 102.415 12.2069C103.687 7.2584 99.7561 2.96954 94.7838 2.96954C91.5463 2.97031 88.7718 5.05991 87.7305 7.91876ZM97.7907 10.3381C97.7907 11.768 96.5187 12.9776 95.0154 12.9776C93.5121 12.9776 92.2402 11.7679 92.2402 10.3381C92.2402 8.90834 93.5121 7.69862 95.0154 7.69862C96.5188 7.80908 97.7907 8.90834 97.7907 10.3381Z" fill="#1E1E1E"/>
<path d="M95.5931 29.473H80.9084C79.9833 29.473 79.1743 29.9126 78.7113 30.6827L72.3516 40.5797H56.511C55.8174 40.5797 55.3544 41.1297 55.3544 41.6797V44.2089C55.3544 44.8686 55.9327 45.3089 56.511 45.3089H72.3516L78.595 54.9865C79.0572 55.6462 79.867 56.0865 80.7921 56.0865H95.5923C96.8642 59.4954 100.564 61.8052 104.843 60.9254C107.618 60.2657 109.814 58.1762 110.509 55.5367C111.78 50.697 107.849 46.2985 102.878 46.2985C99.4088 46.2985 96.6344 48.3882 95.5931 51.3576L82.2957 51.3568L76.8621 42.9992L82.4119 34.312H95.7086C96.9805 37.7209 100.68 40.0306 104.959 39.1509C107.734 38.4912 109.93 36.4016 110.625 33.7621C111.897 28.8136 107.966 24.4142 102.993 24.4142C99.5242 24.4142 96.6336 26.6132 95.5931 29.473ZM105.652 53.7766C105.652 55.2064 104.381 56.4161 102.877 56.4161C101.374 56.4161 100.102 55.2063 100.102 53.7766C100.102 52.3468 101.374 51.1371 102.877 51.1371C104.381 51.1378 105.652 52.3476 105.652 53.7766ZM105.652 31.8924C105.652 33.3222 104.381 34.5319 102.877 34.5319C101.374 34.5319 100.102 33.3222 100.102 31.8924C100.102 30.4626 101.374 29.2529 102.877 29.2529C104.381 29.3626 105.652 30.4626 105.652 31.8924Z" fill="#1E1E1E"/>
</svg>
