<svg width="101" height="86" viewBox="0 0 101 86" fill="none" xmlns="http://www.w3.org/2000/svg">
<path d="M70.7168 61.4141H6.2509V26.2321H33.4722V20.1629L3.50767 20.1622C1.60889 20.1622 0.0258789 21.6024 0.0258789 23.5569V69.849C0.0258789 71.7003 1.50297 73.2437 3.50767 73.2437H31.6785V79.4164H25.4537C24.5043 79.4164 23.7654 80.1368 23.7654 81.0625V84.2513C23.7654 85.177 24.5043 86 25.4537 86H51.6199C52.5693 86 53.3082 85.2796 53.3082 84.2513V80.959C53.3082 80.0334 52.5693 79.3129 51.6199 79.3129H45.3951V73.1403H73.5659C75.4647 73.1403 77.0477 71.5975 77.0477 69.7456V48.7617H70.8229V61.4146L70.7168 61.4141ZM38.5366 69.5405C37.1648 69.5405 36.1101 68.5115 36.1101 67.1747C36.1101 65.8371 37.1655 64.8088 38.5366 64.8088C39.9085 64.8088 40.9631 65.8378 40.9631 67.1747C40.8579 68.5122 39.8033 69.5405 38.5366 69.5405Z" fill="#1E1E1E"/>
<path d="M100.259 7.61282C100.259 7.30426 100.259 7.09831 100.154 6.89237C99.7324 3.08632 96.4609 0 92.4522 0H46.5558C42.2297 0 38.7479 3.39475 38.7479 7.61265V36.0051C38.7479 38.7828 40.3303 41.1486 42.5463 42.4862C43.7069 43.2066 45.0787 43.6178 46.5558 43.6178H92.4522C93.824 43.6178 94.9846 43.3092 96.0393 42.6921C98.4658 41.4579 100.154 38.8861 100.154 36.0058V7.6134L100.259 7.61282ZM94.4562 37.2397C94.0345 37.9602 93.2955 38.3713 92.4513 38.3713H46.555C45.7108 38.3713 45.0779 37.9602 44.6562 37.3423C44.3397 36.9312 44.1285 36.5193 44.1285 35.9022L44.1277 21.2945H94.8775V36.0047C94.8783 36.4166 94.7723 36.8285 94.4558 37.2396L94.4562 37.2397ZM94.8786 11.0076H44.1289V7.51013C44.1289 6.17258 45.1842 5.14428 46.5554 5.14428H92.4517C93.8236 5.14428 94.8783 6.17328 94.8783 7.51013L94.8786 11.0076Z" fill="#1E1E1E"/>
<path d="M86.9652 27.2608C85.6993 27.2608 84.5387 27.878 83.7998 28.8036C83.0608 27.8779 81.901 27.2608 80.6343 27.2608C78.4183 27.2608 76.6248 29.0096 76.6248 31.1701C76.6248 33.3308 78.4184 35.0794 80.6343 35.0794C81.9002 35.0794 83.0608 34.4623 83.7998 33.5366C84.5387 34.4623 85.6986 35.0794 86.9652 35.0794C89.1813 35.0794 90.9748 33.3307 90.9748 31.1701C90.974 29.0095 89.1805 27.2608 86.9652 27.2608Z" fill="#1E1E1E"/>
</svg>
