<svg width="98" height="86" viewBox="0 0 98 86" fill="none" xmlns="http://www.w3.org/2000/svg">
<path d="M41.4309 48.318C40.9285 47.6481 40.0911 47.1456 39.4212 46.6432C38.5838 46.1407 37.7464 45.6383 36.7415 45.3033C36.4065 45.1359 36.239 45.1358 36.0716 44.9684C35.5691 44.8009 35.2342 44.6334 34.7317 44.4659C34.2293 44.131 33.7268 43.9635 33.2244 43.6285L32.2195 42.6237C32.052 42.2887 31.8846 41.9537 31.8846 41.4513C31.8846 41.1163 32.052 40.7814 32.2195 40.4464C32.387 40.1115 32.722 39.944 33.0569 39.609C33.0569 39.609 33.2244 39.609 33.2244 39.4415C33.5594 39.2741 33.8943 39.1066 34.3968 38.9391C34.8992 38.7716 35.4016 38.7716 35.9041 38.7716H36.0716C36.574 38.7716 37.0764 38.7716 37.5789 38.9391C38.0813 38.9391 38.5838 39.1066 39.0862 39.2741C39.5886 39.4415 40.0911 39.609 40.5935 39.7765C41.2634 40.1115 41.9333 39.609 41.9333 38.9391V36.7619C41.9333 35.9245 41.2634 35.0871 40.426 34.9196C39.9236 34.7521 39.5886 34.7521 39.0862 34.5846C38.0813 34.4171 36.909 34.4171 35.7366 34.4171V32.7423H33.0569V34.5846C32.722 34.5846 32.2195 34.7521 31.8846 34.7521C30.7122 35.0871 29.5398 35.422 28.7024 36.0919C27.865 36.7619 27.0276 37.4318 26.5252 38.4367C26.0228 39.4415 25.6878 40.4464 25.6878 41.7863C25.6878 43.4611 26.1902 44.9684 27.1951 46.1407C28.2 47.3131 29.7073 48.318 31.7171 49.1554C32.2195 49.3229 32.722 49.4903 33.2244 49.8253C33.3919 49.9928 33.7268 49.9928 33.8943 50.1603C34.5642 50.4952 35.0667 50.8302 35.5691 51.1651C35.7366 51.1651 35.7366 51.3326 35.9041 51.3326C36.239 51.6676 36.574 51.8351 36.7415 52.17C37.0764 52.505 37.2439 53.0074 37.2439 53.5098C37.2439 53.8448 37.0764 54.1798 36.909 54.5147C36.7415 54.8497 36.4065 55.0172 36.0716 55.3521L35.9041 55.5196C35.5691 55.6871 35.2342 55.8546 34.7317 55.8546C34.2293 56.022 33.7268 56.022 33.0569 56.022H32.8894C31.7171 56.022 30.3772 55.8546 29.2049 55.3521C28.535 55.1846 27.865 54.8497 27.3626 54.5147C26.6927 54.1798 25.8553 54.5147 25.8553 55.3521V57.8643C25.8553 58.7017 26.3577 59.3716 27.1951 59.7066L29.2049 60.209C30.5447 60.3765 31.7171 60.544 33.2244 60.544V62.2188H35.9041V60.3765C36.239 60.3765 36.7415 60.209 37.0764 60.209C38.2488 59.8741 39.4212 59.5391 40.2586 58.8692C41.2634 58.1993 41.9333 57.5294 42.4358 56.5245C42.9382 55.5196 43.2732 54.3472 43.2732 53.0074C43.2732 52.0025 43.1057 50.9977 42.7708 50.3277C42.6033 49.6578 42.1008 48.9879 41.4309 48.318Z" fill="#1E1E1E"/>
<path d="M78.1081 26.2106V13.8171L72.0788 12.3098C70.404 11.9748 68.7292 11.4724 67.0544 11.1374H66.7194C65.0446 11.4724 63.5373 11.9748 61.8625 12.3098C59.8527 12.8122 57.6755 13.3147 55.6657 13.8171V26.3781C55.6657 29.0578 56.5032 31.235 58.1779 33.4123C60.1877 35.9245 63.0349 37.9342 66.8869 39.609C70.2365 38.1017 72.7487 36.4269 74.9259 34.2497C77.1032 31.7375 78.2755 29.2253 78.1081 26.2106ZM74.256 20.8513C73.2511 22.1911 72.2463 23.3635 71.2414 24.7033C69.5666 26.7131 68.0593 28.8903 66.3845 30.9001C65.5471 32.0724 64.7097 32.0724 63.8723 30.9001C62.3649 28.8903 61.0251 27.048 59.5178 25.0383C59.0154 24.3683 59.0154 23.6984 59.5178 23.196C60.0202 22.6935 60.6901 22.861 61.3601 23.3635C62.3649 24.2009 63.3698 25.2057 64.5422 26.0431C64.7097 26.2106 64.8771 26.3781 65.2121 26.5456C65.3796 26.3781 65.3796 26.0431 65.5471 25.8757L72.2463 19.1765C72.4137 19.009 72.7487 18.674 73.0837 18.674C73.5861 18.5065 74.0885 18.674 74.4235 19.1765C74.7585 19.8464 74.591 20.3488 74.256 20.8513Z" fill="#1E1E1E"/>
<path d="M87.9884 26.2106V9.6301C87.9884 6.78294 86.4811 4.77318 83.8014 4.10326C81.1218 3.43334 78.4421 2.76342 75.9299 2.0935L74.7575 1.75854L68.7283 0.25122C67.5559 -0.08374 66.3835 -0.08374 65.2112 0.25122C63.0339 0.75366 60.8567 1.2561 58.8469 1.92602C56.3347 2.59594 53.1526 3.26586 50.138 4.10326C47.4583 4.77318 45.7835 6.78294 45.7835 9.6301V26.5456C45.7835 31.57 47.2908 35.9244 50.4729 39.7765C53.99 43.9635 58.3445 47.1456 64.5413 49.8253C65.2112 50.1602 66.0486 50.3277 66.7185 50.3277C67.5559 50.3277 68.3933 50.1602 69.0632 49.8253C74.2551 47.648 78.4421 44.8009 81.7917 41.2838C86.1462 36.9293 88.1559 31.9049 87.9884 26.2106ZM66.886 43.461C62.0291 41.2838 58.512 38.7716 55.8323 35.422C53.6551 32.7423 52.6502 29.8952 52.6502 26.5456V10.4675C55.1624 9.79758 57.8421 9.12766 60.3543 8.62522C62.5315 8.12278 64.7087 7.62034 66.7185 6.95042H67.0535C69.2307 7.45286 71.4079 7.9553 73.4177 8.45774C75.9299 9.12766 78.6096 9.79758 81.1218 10.3V26.5456C81.2893 30.3976 79.9494 33.7472 76.9348 36.7618C74.4226 39.4415 71.073 41.6188 66.886 43.461Z" fill="#1E1E1E"/>
<path d="M95.8609 79.3008C92.8463 76.1187 90.1666 73.104 87.4869 70.0894V41.4503C86.817 42.4552 85.9796 43.2926 85.1422 44.13C83.4674 45.9723 81.4577 47.4796 79.4479 48.9869V67.4097H17.6468V26.7111H41.5974V18.6721H17.6488C17.1463 18.6721 16.4764 18.6721 15.8065 18.8396C11.9544 19.677 9.44224 22.6916 9.44224 27.0461V67.7447C9.44224 68.5821 9.60972 69.4195 9.44224 69.9219C9.27476 70.4244 8.60484 70.9268 8.1024 71.5967L7.09752 72.6016C5.42272 74.4439 3.74792 76.4536 2.07312 78.2959L1.06824 79.3008C0.0633566 80.4732 -0.271603 81.9805 0.230837 83.4878C0.733276 84.9951 2.07312 86 3.74792 86H92.6807C93.5181 86 95.8628 86 96.8677 83.4878C98.0401 81.6455 96.3653 79.9707 95.8628 79.3008H95.8609ZM58.8469 78.6309C58.5119 77.626 58.177 76.4536 57.842 75.4488H39.4192C39.0843 76.4536 38.7493 77.626 38.4143 78.6309H9.43936C9.60684 78.2959 9.77432 78.1284 10.1093 77.7935C11.7841 75.9512 13.2914 74.2764 14.9662 72.4341C15.3012 72.0992 15.8036 71.9317 16.1386 71.9317H80.7858C81.2883 71.9317 81.7907 72.0992 82.1257 72.4341C83.9679 74.4439 85.8102 76.2862 87.6525 78.4634H58.8459L58.8469 78.6309Z" fill="#1E1E1E"/>
</svg>
