<svg width="191" height="260" viewBox="0 0 191 260" fill="none" xmlns="http://www.w3.org/2000/svg">
<path fill-rule="evenodd" clip-rule="evenodd" d="M6.77708 79.9845L37.073 101.618L6.77708 171.455V79.9845ZM7.27344 175.064H139.929L38.6473 102.742L7.27344 175.064ZM39.4179 100.966L81.7865 3.29894L80.2507 2.25156L4.88599 77.7537V176.958H141.939V257.809L143.733 258.227L188.287 167.47L143.115 175.012L39.4179 100.966ZM37.8436 99.8415L78.068 7.11751L7.2902 78.0244L37.8436 99.8415ZM143.83 176.814V253.736L184.964 169.946L143.83 176.814Z" fill="#FF7A00"/>
<path d="M84.5652 5.11236C84.5652 7.93584 82.2804 10.2247 79.4621 10.2247C76.6438 10.2247 74.3591 7.93584 74.3591 5.11236C74.3591 2.28888 76.6438 0 79.4621 0C82.2804 0 84.5652 2.28888 84.5652 5.11236Z" fill="#FF7A00"/>
<path d="M10.2061 78.1459C10.2061 80.9694 7.92139 83.2583 5.10305 83.2583C2.28471 83.2583 0 80.9694 0 78.1459C0 75.3224 2.28471 73.0336 5.10305 73.0336C7.92139 73.0336 10.2061 75.3224 10.2061 78.1459Z" fill="#FF7A00"/>
<path d="M43.7398 101.517C43.7398 104.34 41.455 106.629 38.6367 106.629C35.8184 106.629 33.5337 104.34 33.5337 101.517C33.5337 98.6935 35.8184 96.4046 38.6367 96.4046C41.455 96.4046 43.7398 98.6935 43.7398 101.517Z" fill="#FF7A00"/>
<path d="M10.2061 174.55C10.2061 177.374 7.92139 179.663 5.10305 179.663C2.28471 179.663 0 177.374 0 174.55C0 171.727 2.28471 169.438 5.10305 169.438C7.92139 169.438 10.2061 171.727 10.2061 174.55Z" fill="#FF7A00"/>
<path d="M147.259 174.55C147.259 177.374 144.974 179.663 142.156 179.663C139.337 179.663 137.053 177.374 137.053 174.55C137.053 171.727 139.337 169.438 142.156 169.438C144.974 169.438 147.259 171.727 147.259 174.55Z" fill="#FF7A00"/>
<path d="M191 168.708C191 171.531 188.715 173.82 185.897 173.82C183.079 173.82 180.794 171.531 180.794 168.708C180.794 165.884 183.079 163.595 185.897 163.595C188.715 163.595 191 165.884 191 168.708Z" fill="#FF7A00"/>
<path d="M147.259 254.888C147.259 257.711 144.974 260 142.156 260C139.337 260 137.053 257.711 137.053 254.888C137.053 252.064 139.337 249.775 142.156 249.775C144.974 249.775 147.259 252.064 147.259 254.888Z" fill="#FF7A00"/>
</svg>
